PathFileType	4	(X/Y/Z)	C:\Users\Biomechanik\SynologyDrive\AlexP\Athlete_03\Athlete_3_25_03_31\Static_01\marker_experimental.trc
DataRate	CameraRate	NumFrames	NumMarkers	Units	OrigDataRate	OrigDataStartFrame	OrigNumFrames
200.000000	200.000000	4	74	mm	200.000000	325	372
Frame#	Time	BL			BR			GLAB			RFHD			LFHD			C7			T6			SPINMOL			SPINM2			SPINM3			T12			BELTOL			BELT2			BELT3			SACROL			SACR2			SACR3			LASI			RASI			LPSI			RPSI			LTHOL			LTH2			LTH3			LKNEL			LKNEM			LFIB			LSHAOL			LSHA2			LSHA3			LMALL			LMALM			LHEE			LTOE			LM5			RTHOL			RTH2			RTH3			RKNEL			RKNEM			RFIB			RSHAOL			RSHA2			RSHA3			RMALL			RMALM			RHEE			RTOE			RM5			STRN			XIPH			LACR			LUAOL			LUA2			LUA3			LCUBL			LCUBM			LLAOL			LLA2			LLA3			LWRR			LWRU			RACR			RUAOL			RUA2			RUA3			RCUBL			RCUBM			RLAOL			RLA2			RLA3			RWRR			RWRU			*73			
		X1	Y1	Z1	X2	Y2	Z2	X3	Y3	Z3	X4	Y4	Z4	X5	Y5	Z5	X6	Y6	Z6	X7	Y7	Z7	X8	Y8	Z8	X9	Y9	Z9	X10	Y10	Z10	X11	Y11	Z11	X12	Y12	Z12	X13	Y13	Z13	X14	Y14	Z14	X15	Y15	Z15	X16	Y16	Z16	X17	Y17	Z17	X18	Y18	Z18	X19	Y19	Z19	X20	Y20	Z20	X21	Y21	Z21	X22	Y22	Z22	X23	Y23	Z23	X24	Y24	Z24	X25	Y25	Z25	X26	Y26	Z26	X27	Y27	Z27	X28	Y28	Z28	X29	Y29	Z29	X30	Y30	Z30	X31	Y31	Z31	X32	Y32	Z32	X33	Y33	Z33	X34	Y34	Z34	X35	Y35	Z35	X36	Y36	Z36	X37	Y37	Z37	X38	Y38	Z38	X39	Y39	Z39	X40	Y40	Z40	X41	Y41	Z41	X42	Y42	Z42	X43	Y43	Z43	X44	Y44	Z44	X45	Y45	Z45	X46	Y46	Z46	X47	Y47	Z47	X48	Y48	Z48	X49	Y49	Z49	X50	Y50	Z50	X51	Y51	Z51	X52	Y52	Z52	X53	Y53	Z53	X54	Y54	Z54	X55	Y55	Z55	X56	Y56	Z56	X57	Y57	Z57	X58	Y58	Z58	X59	Y59	Z59	X60	Y60	Z60	X61	Y61	Z61	X62	Y62	Z62	X63	Y63	Z63	X64	Y64	Z64	X65	Y65	Z65	X66	Y66	Z66	X67	Y67	Z67	X68	Y68	Z68	X69	Y69	Z69	X70	Y70	Z70	X71	Y71	Z71	X72	Y72	Z72	X73	Y73	Z73	X74	Y74	Z74	

326	1.625	960.758056640625	36.23485946655286	-1933.523559570312	1063.147583007812	32.90874481201171	86.65290832519531	372.6972961425781	1600.501831054688	-1182.090209960938	321.8862609863281	1627.731567382812	-1120.135375976562	333.2248229980469	1628.744873046875	-1256.064453125	145.3894195556641	1439.033325195312	-1203.049072265625	nan	nan	nan	102.77490234375	1230.18701171875	-1235.653442382812	96.96041870117188	1220.982055664062	-1186.249267578125	109.9871978759766	1165.731811523438	-1220.899291992188	125.4606781005859	1102.30712890625	-1217.952514648438	97.22679901123047	1081.397705078125	-1232.3310546875	97.04446411132812	1077.968383789062	-1182.07958984375	90.07246398925781	1018.550170898438	-1212.278442382812	105.7249755859375	959.7783203125001	-1237.028564453125	106.6586990356445	957.6428222656251	-1185.673583984375	87.36758422851562	900.4821166992189	-1213.124145507812	335.712158203125	934.5654296875001	-1330.26123046875	328.6903991699219	925.1821899414064	-1082.513916015625	118.5617141723633	977.1237182617189	-1255.896362304688	119.3320007324219	968.0684814453126	-1171.409057617188	193.1130523681641	683.7947998046876	-1399.220703125	143.2411651611328	630.8418579101564	-1366.564453125	189.3965759277344	623.9645385742189	-1385.543823242188	236.5716247558594	487.6719360351563	-1382.4755859375	254.8819732666016	461.9492492675782	-1263.125122070312	193.6390228271484	426.0218505859376	-1387.239013671875	159.5689392089844	329.0393066406251	-1403.020385742188	110.3185577392578	267.5508728027344	-1390.065185546875	159.2200775146484	267.2257385253907	-1401.530395507812	142.7897491455078	81.4789581298829	-1381.434326171875	183.6694183349609	89.70973968505868	-1295.651489257812	95.04819488525391	67.56603240966805	-1318.255004882812	309.8882751464844	47.75798416137704	-1348.6611328125	252.9891967773438	31.25328636169442	-1443.65087890625	162.5940399169922	696.4962158203126	-1023.7001953125	212.8590850830078	637.5142822265626	-1004.356323242188	169.4699401855469	635.2243041992189	-1029.03515625	202.2300720214844	496.0546264648438	-1025.857421875	239.810302734375	464.0337829589844	-1147.56884765625	155.0577545166016	432.6127929687501	-1028.94970703125	120.383186340332	346.9447326660157	-1018.790222167969	149.7199249267578	275.6237182617188	-1003.432739257812	108.393440246582	286.5902099609376	-1028.85400390625	124.9955368041992	85.11882019042974	-1041.853271484375	189.1045532226562	95.60326385498054	-1114.648193359375	90.59005737304688	63.79186630249031	-1115.075805664062	292.717041015625	47.58751678466803	-1043.740356445312	216.4364624023438	39.41932678222662	-964.1815795898438	325.9749450683594	1364.095458984375	-1199.205810546875	357.6371765136719	1218.714233398438	-1201.537719726562	204.6228942871094	1435.493286132812	-1349.3427734375	171.1250152587891	1410.34765625	-1487.897583007812	160.0817718505859	1385.524291992188	-1548.169677734375	203.66015625	1413.433715820312	-1545.016845703125	184.7375030517578	1401.145263671875	-1652.707275390625	258.1459045410156	1311.228637695312	-1651.197021484375	182.7759399414062	1375.582641601562	-1743.269775390625	175.95263671875	1316.21240234375	-1796.088012695312	187.5218353271484	1364.7412109375	-1804.289794921875	200.1376342773438	1355.558349609375	-1909.457397460938	279.5309753417969	1353.16162109375	-1902.374633789062	205.0816497802734	1429.242309570312	-1059.103515625	161.7973937988281	1410.52294921875	-937.2647094726561	179.1180114746094	1407.992919921875	-873.5751953124999	132.9266357421875	1387.674438476562	-883.9675903320311	154.8111877441406	1389.872680664062	-769.1025390624999	212.73291015625	1295.33251953125	-769.2075195312499	143.3528594970703	1369.736938476562	-670.2342529296874	158.4249572753906	1411.98876953125	-604.2346801757811	142.476806640625	1364.192138671875	-607.9470825195311	153.8084869384766	1375.907348632812	-515.6532592773436	232.0658569335938	1352.57861328125	-503.0093688964843	105.5082321166992	1266.811401367188	-1213.577392578125	
327	1.63	960.7557983398438	36.23274993896496	-1933.5380859375	1063.151489257812	32.91535949707031	86.64436340332031	372.701416015625	1600.453735351562	-1182.1171875	321.8856811523438	1627.755859375	-1120.176391601562	333.2261962890625	1628.749389648438	-1256.112548828125	145.3953857421875	1439.04541015625	-1203.087036132812	nan	nan	nan	102.7789535522461	1230.206420898438	-1235.697021484375	96.98351287841797	1221.000610351562	-1186.293823242188	110.0167388916016	1165.734619140625	-1220.927001953125	125.4545211791992	1102.320922851562	-1217.97998046875	97.12523651123047	1081.218505859375	-1232.311767578125	97.04065704345703	1077.983032226562	-1182.1015625	90.02898406982422	1018.568908691406	-1212.322631835938	105.7189788818359	959.7913208007814	-1237.047973632812	106.6379928588867	957.6611938476564	-1185.673583984375	87.37227630615234	900.4837646484376	-1213.110595703125	335.71240234375	934.5620727539064	-1330.258178710938	328.6708374023438	925.1571655273439	-1082.533569335938	118.5594711303711	977.1422729492189	-1255.908203125	119.3283004760742	968.0780639648439	-1171.415771484375	193.1195220947266	683.7584838867189	-1399.234252929688	143.2415618896484	630.8497314453126	-1366.548583984375	189.4109954833984	623.9513549804689	-1385.543579101562	236.5685119628906	487.6897888183594	-1382.4658203125	254.8676452636719	461.9345397949219	-1263.139404296875	193.6348419189453	426.0257873535157	-1387.241088867188	159.5820465087891	329.0411071777345	-1403.031982421875	110.4836044311523	267.4643859863282	-1389.939575195312	159.2126007080078	267.2418212890626	-1401.528442382812	142.7833862304688	81.47842407226571	-1381.436279296875	183.6726531982422	89.71723175048837	-1295.659912109375	95.04456329345703	67.56569671630868	-1318.255981445312	309.9114074707031	47.72506332397469	-1348.6826171875	252.9780426025391	31.2601966857911	-1443.655151367188	162.5788726806641	696.4896240234376	-1023.710876464844	212.8325500488281	637.5181884765626	-1004.35986328125	169.4594879150391	635.2302246093751	-1029.046630859375	202.2254333496094	496.0658569335938	-1025.840576171875	239.8035888671875	464.0467834472657	-1147.548095703125	155.0426025390625	432.6189575195313	-1028.952026367188	120.3682022094727	346.9590454101563	-1018.791076660156	149.7073822021484	275.6206665039063	-1003.425476074219	108.3928070068359	286.5844726562501	-1028.853881835938	125.006103515625	85.11160278320318	-1041.848266601562	189.1001586914062	95.61086273193366	-1114.619506835938	90.57321929931641	63.80718612670906	-1115.074462890625	292.712158203125	47.59857177734381	-1043.732299804688	216.4349975585938	39.40806198120123	-964.1973876953125	325.9586791992188	1364.104736328125	-1199.23876953125	357.6285400390625	1218.700073242188	-1201.55615234375	204.6202850341797	1435.494384765625	-1349.387939453125	171.1490631103516	1410.3349609375	-1487.925415039062	159.9136505126953	1385.31591796875	-1548.240966796875	203.6610412597656	1413.403686523438	-1545.052734375	184.7333679199219	1401.154541015625	-1652.742065429688	258.1452331542969	1311.21435546875	-1651.245361328125	182.7677917480469	1375.5947265625	-1743.284790039062	175.9490509033203	1316.219482421875	-1796.105102539062	187.5052032470703	1364.739868164062	-1804.33349609375	200.1166534423828	1355.550415039063	-1909.484130859375	279.489501953125	1353.123413085938	-1902.415283203125	205.0847930908203	1429.249877929688	-1059.153930664062	161.7878570556641	1410.5400390625	-937.3227539062499	179.1885986328125	1407.86767578125	-873.6353149414061	132.8803558349609	1387.711547851562	-883.9276123046874	154.8004913330078	1389.892700195312	-769.1447753906249	212.7196350097656	1295.353149414062	-769.2086181640624	143.3398895263672	1369.7529296875	-670.2713012695311	158.4059753417969	1412.006591796875	-604.2994995117186	142.4314575195312	1364.214111328125	-607.9989624023436	153.963134765625	1375.7548828125	-515.7775268554686	232.0450286865234	1352.57568359375	-503.0492858886718	105.5151519775391	1266.81591796875	-1213.616088867188	
328	1.635	960.754150390625	36.24274063110364	-1933.517578125	1063.148803710938	32.92545318603515	86.64833068847656	372.4002990722656	1600.65625	-1182.562133789062	321.863525390625	1627.764404296875	-1120.232177734375	333.2257080078125	1628.76171875	-1256.119995117188	145.3983764648438	1439.060668945312	-1203.124267578125	nan	nan	nan	102.7868728637695	1230.212768554688	-1235.742797851562	96.99098205566406	1221.008911132812	-1186.33203125	110.0321044921875	1165.732543945312	-1220.963623046875	125.4631881713867	1102.327270507812	-1217.994140625	97.22034454345703	1081.234619140625	-1232.311279296875	97.03923034667969	1078.007202148438	-1182.133056640625	90.10001373291016	1018.564270019531	-1212.2978515625	105.7350692749023	959.8124389648439	-1237.059936523438	106.6385345458984	957.6614379882814	-1185.691162109375	87.37974548339844	900.5086059570314	-1213.125732421875	335.7132568359375	934.5421142578126	-1330.255249023438	328.6775817871094	925.1768798828126	-1082.533325195312	118.5749740600586	977.1406250000001	-1255.89501953125	119.3224792480469	968.0866699218751	-1171.422119140625	193.1849822998047	683.7939453125001	-1399.033935546875	143.2474670410156	630.8366088867189	-1366.5595703125	189.3789672851562	623.9685058593751	-1385.55078125	236.5620727539062	487.6933593750001	-1382.470092773438	254.8501434326172	461.9241027832032	-1263.140625	193.6309967041016	426.0207214355469	-1387.236083984375	159.5629119873047	329.040252685547	-1403.03076171875	110.4913864135742	267.4588623046876	-1389.936279296875	159.2243041992188	267.2153930664064	-1401.529174804688	142.7996978759766	81.47435760498055	-1381.447998046875	183.6700134277344	89.70773315429696	-1295.65576171875	95.05127716064453	67.56922912597665	-1318.261962890625	309.9061584472656	47.71540069580087	-1348.682373046875	253.0428466796875	31.16468238830575	-1443.627807617188	162.5550079345703	696.5185546875001	-1023.730163574219	212.8193969726562	637.5112304687501	-1004.359313964844	169.4297180175781	635.2318115234376	-1029.044555664062	202.2058258056641	496.0633544921876	-1025.860961914062	239.7929382324219	464.0325012207032	-1147.54150390625	155.0441284179688	432.6170654296876	-1028.956909179688	120.3597030639648	346.9555053710938	-1018.797119140625	149.7096252441406	275.6149902343751	-1003.4306640625	108.3882598876953	286.5867309570313	-1028.861450195312	125.0125885009766	85.10325622558599	-1041.845336914062	189.1036987304688	95.59789276123054	-1114.65087890625	90.57427978515625	63.81845855712898	-1115.081909179688	292.7146301269531	47.60343170166022	-1043.744750976562	216.4382171630859	39.44404983520513	-964.167236328125	325.9528198242188	1364.099731445312	-1199.2666015625	357.6170043945312	1218.674926757812	-1201.56787109375	204.6302490234375	1435.4892578125	-1349.428100585938	171.1521911621094	1410.3486328125	-1487.950073242188	159.976318359375	1385.394287109375	-1548.309936523438	203.6875305175781	1413.386474609375	-1545.066528320312	184.7630615234375	1401.139282226562	-1652.765502929688	258.1666259765625	1311.190063476562	-1651.289428710938	182.7300109863281	1375.584228515625	-1743.318481445312	175.9290466308594	1316.22216796875	-1796.13037109375	187.5131988525391	1364.728149414062	-1804.327270507812	200.0534210205078	1355.530883789063	-1909.5126953125	279.4708862304688	1353.101684570313	-1902.481811523438	205.0961608886719	1429.249267578125	-1059.214111328125	161.7976531982422	1410.563354492188	-937.3342285156249	179.0890808105469	1408.033325195312	-873.6810913085936	132.8765563964844	1387.748779296875	-883.9888916015624	154.7856750488281	1389.911987304688	-769.1795043945311	212.7256011962891	1295.445190429688	-769.1654052734374	143.3149566650391	1369.784301757812	-670.3033447265624	158.3556823730469	1412.01904296875	-604.2794189453124	142.3992462158203	1364.233276367188	-608.0325317382811	153.9419708251953	1375.77392578125	-515.8112182617186	232.0178375244141	1352.581787109375	-503.0758666992187	105.5242614746094	1266.821166992188	-1213.655029296875	
329	1.64	960.748291015625	36.24118804931653	-1933.515991210938	1063.147583007812	32.9219856262207	86.64250946044922	372.408447265625	1600.668334960938	-1182.604614257812	321.8620300292969	1627.777465820312	-1120.321533203125	333.21826171875	1628.73388671875	-1256.15380859375	145.4011383056641	1439.0615234375	-1203.176391601562	nan	nan	nan	103.0341110229492	1230.142822265625	-1235.770263671875	97.00718688964844	1221.030883789062	-1186.355102539062	110.0282363891602	1165.7353515625	-1221.006469726562	125.4553375244141	1102.331176757812	-1218.022216796875	97.22555541992188	1081.259399414062	-1232.32666015625	97.02434539794922	1078.026611328125	-1182.157958984375	90.04100799560547	1018.569946289063	-1212.3544921875	105.7289505004883	959.8188476562501	-1237.073852539062	106.6204452514648	957.6892700195314	-1185.689208984375	87.37785339355469	900.5222167968751	-1213.123046875	335.7134094238281	934.5372924804689	-1330.254760742188	328.6440124511719	925.1544189453126	-1082.541870117188	118.5779190063477	977.1361694335939	-1255.916870117188	119.3221054077148	968.0996704101564	-1171.431884765625	193.1723785400391	683.8062133789064	-1399.022094726562	143.2487945556641	630.8331909179689	-1366.573608398438	189.3985443115234	623.9488525390626	-1385.54931640625	236.5530242919922	487.6867980957032	-1382.472290039062	254.8357696533203	461.9236755371094	-1263.124877929688	193.6347503662109	426.0139160156251	-1387.239990234375	159.5703125	329.0350341796876	-1403.034790039062	110.3073577880859	267.5396728515626	-1390.080322265625	159.2200469970703	267.2252197265626	-1401.53564453125	142.7950744628906	81.46670532226571	-1381.446899414062	183.6628875732422	89.69885253906259	-1295.661499023438	95.04134368896484	67.57614135742196	-1318.262451171875	309.8994445800781	47.72030639648446	-1348.695434570312	252.9946441650391	31.23810005187997	-1443.660766601562	162.5555725097656	696.5136108398439	-1023.719116210938	212.8008422851562	637.5050659179689	-1004.357666015625	169.4169158935547	635.2405395507814	-1029.04931640625	202.1945495605469	496.0668640136719	-1025.845458984375	239.7839813232422	464.0298156738282	-1147.543334960938	155.027587890625	432.6169738769532	-1028.954223632812	120.3562927246094	346.9598999023438	-1018.797790527344	149.7016296386719	275.6258239746094	-1003.42724609375	108.3754730224609	286.5909423828126	-1028.85009765625	125.0078506469727	85.10597229003912	-1041.842041015625	189.1012268066406	95.59294891357429	-1114.646362304688	90.6534423828125	63.7259826660157	-1115.079956054688	292.7109069824219	47.60010910034186	-1043.7529296875	216.4325561523438	39.41421127319342	-964.189697265625	325.9495239257812	1364.081298828125	-1199.30078125	357.6304626464844	1218.594360351562	-1201.59765625	204.6618194580078	1435.499633789062	-1349.44970703125	171.1524810791016	1410.3486328125	-1487.98779296875	159.9430389404297	1385.255493164062	-1548.324340820312	203.7524871826172	1413.406982421875	-1545.107299804688	184.7497863769531	1401.12353515625	-1652.79052734375	258.1532287597656	1311.170532226562	-1651.330444335938	182.6514587402344	1375.577392578125	-1743.380615234375	175.9554443359375	1316.197265625	-1796.124267578125	187.4775695800781	1364.702758789062	-1804.367065429688	199.9992980957031	1355.510131835938	-1909.558471679688	279.4173278808594	1353.09814453125	-1902.5224609375	205.0855560302734	1429.249633789062	-1059.241088867188	161.7852020263672	1410.5810546875	-937.3964843749999	179.1458282470703	1407.936889648438	-873.7696533203124	132.8506927490234	1387.760009765625	-884.0183105468749	154.7774963378906	1389.941162109375	-769.2249755859374	212.6979522705078	1295.448608398438	-769.2005615234374	143.2928009033203	1369.801879882812	-670.3537597656249	158.3211212158203	1412.039184570312	-604.3374633789061	142.3849487304688	1364.275512695312	-608.0570678710936	153.7407531738281	1375.967041015625	-515.7819213867186	231.9877319335938	1352.602783203125	-503.1211547851562	105.1809921264648	1266.969360351562	-1213.739501953125	
